<svg width="627" height="757" viewBox="0 0 627 757" fill="none" xmlns="http://www.w3.org/2000/svg">
<path d="M144.094 731.575L95.3861 697.813C88.7756 693.231 81.4249 689.822 73.6567 687.737L52.0716 681.943C38.2073 678.221 26.727 668.282 20.9565 655.137C9.80235 629.73 22.893 599.959 49.2817 591.38L63.9353 586.616C68.8184 585.029 74.1647 585.843 78.3532 588.814C91.2812 597.981 108.342 585.102 103.066 570.157L87.1859 525.17C86.0014 521.815 85.3962 518.282 85.3962 514.724V468.614C85.3962 447.383 100.006 428.944 120.675 424.09L122.293 423.71C143.56 418.715 165.257 430.145 173.164 450.508C176.092 458.049 176.876 466.254 175.429 474.213L161.692 549.743C160.166 558.134 160.48 566.756 162.611 575.015L166.609 590.503C172.666 613.97 196.819 627.883 220.158 621.348C227.023 619.426 234.257 619.23 241.216 620.778L273.914 628.053C288.696 631.341 304.171 627.765 316.012 618.325C324.881 611.253 335.889 607.401 347.233 607.401H377.169C382.314 607.401 387.404 608.454 392.127 610.495C417.021 621.253 444.791 603.001 444.791 575.882V572.383C444.791 565.879 446.377 559.473 449.411 553.72L487.287 481.905C493.964 469.247 505.642 459.967 519.482 456.323L525.467 454.748C546.541 449.2 568.498 459.935 577.06 479.974L580.923 489.014C582.371 492.401 582.614 496.183 581.612 499.728L565.298 557.472C562.345 567.923 576.827 573.893 582.097 564.396C582.796 563.136 583.783 562.059 584.977 561.253L587.483 559.562C598.459 552.154 613.45 556.183 619.233 568.095L622.898 575.645C625.565 581.137 626.433 587.33 625.378 593.343L613.863 659.027C610.319 679.241 598.083 696.882 580.391 707.283L534.996 733.971C525.822 739.364 515.539 742.595 504.929 743.417L335.455 756.555C331.633 756.851 327.792 756.833 323.972 756.5L177.899 743.78C165.761 742.723 154.108 738.516 144.094 731.575Z" fill="url(#paint0_linear_84_166)"/>
<path d="M509.193 255.594C509.193 255.623 509.163 255.623 509.163 255.623C502.058 264.915 495.758 271.186 495.758 271.186C479.851 172.227 342.631 166.588 342.631 166.588C342.631 166.588 317.661 124.559 324.163 113.943C330.003 104.423 342.776 116.475 345.278 118.95C345.45 119.151 345.566 119.267 345.682 119.353C345.049 116.504 321.949 13.6333 383.31 0.833106C383.885 0.717479 384.431 0.60185 384.978 0.545267C445.332 -9.66681 435.693 126.948 435.693 126.948C435.693 126.948 444.466 116.677 455.429 121.137C463.483 124.416 460.032 138.828 457.643 146.193C457.613 146.366 457.557 146.538 457.498 146.683C457.239 147.374 457.038 148.007 456.836 148.553C456.836 148.582 456.806 148.609 456.806 148.609C456.75 148.781 456.691 148.927 456.664 149.069C456.462 149.615 456.29 150.019 456.204 150.277C457.729 147.17 472.948 117.742 493.342 130.717C514.888 144.38 487.531 179.42 487.531 179.42C550.504 188.621 527.287 231.917 509.193 255.594Z" fill="#FFC568"/>
<path d="M266.534 168.372C266.588 184.613 265.045 198.89 265.045 198.89C211.719 202.479 181.464 262.453 181.464 262.453C87.1448 176.32 154.801 196.311 154.801 196.311C154.801 196.311 144.567 183.499 146.614 175.309C148.661 167.095 153.286 171.188 153.286 171.188C153.286 171.188 125.08 37.3908 141.482 32.7657C143.635 32.1532 146.639 33.8827 150.255 37.3908C174.074 60.3317 224 159.412 224 159.412C224 159.412 216.849 127.617 224 119.429C228.758 113.953 236.07 130.808 240.402 142.636C238.035 133.199 237.585 121.024 251.195 121.981C263.663 122.834 266.455 147.291 266.534 168.372Z" fill="#FFC568"/>
<path d="M323.077 244.508C323.077 244.508 242.82 276.648 234.606 358.686C234.606 358.686 191.939 341.805 188.935 314.637C188.325 309.001 189.413 302.939 192.923 296.481C213.419 258.866 251.037 267.771 251.037 267.771C251.037 267.771 263.559 201.79 309.549 233.292C313.773 236.161 318.265 239.856 323.077 244.508Z" fill="#FFC568"/>
<path d="M376.29 271.176C376.29 275.991 372.388 279.893 367.574 279.893C362.759 279.893 358.858 275.991 358.858 271.176C358.858 266.362 362.759 262.46 367.574 262.46C372.388 262.46 376.29 266.364 376.29 271.176Z" fill="#FFC568"/>
<path d="M255.931 63.0256C255.931 67.8401 252.029 71.7419 247.214 71.7419C242.4 71.7419 238.498 67.8401 238.498 63.0256C238.498 58.2136 242.4 54.3093 247.214 54.3093C252.029 54.3118 255.931 58.2136 255.931 63.0256Z" fill="#FFC568"/>
<path d="M161.473 394.23C161.473 394.23 61.49 407.043 76.3764 385.005C80.0986 379.45 84.9106 375.513 90.013 372.67C105.192 364.295 123.031 366.025 123.031 366.025C123.031 366.025 88.1777 331.174 138.557 304.774C143.846 302.009 150.068 299.325 157.379 296.799C157.379 296.799 138.399 361.931 161.473 394.23Z" fill="#FFC568"/>
<path d="M95.172 309.454C95.172 309.454 5.61029 280.052 43.226 251.34C43.5704 251.074 43.9443 250.809 44.2887 250.543C81.0532 223.375 93.1227 262.452 93.1227 262.452C93.1227 262.452 92.2985 236.24 110.563 255.675C113.886 259.183 117.82 264.209 122.499 271.174C122.499 271.174 91.745 285.529 95.172 309.454Z" fill="#FFC568"/>
<path d="M445.364 366.185C466.366 336.81 452.543 280.266 449.883 270.295C449.618 269.311 449.458 268.78 449.458 268.78C450.203 269.046 450.946 269.311 451.665 269.577C464.984 274.362 474.527 279.651 481.253 285.128C511.877 309.958 483.831 338.004 483.831 338.004C483.831 338.004 504.381 336.008 520.145 346.671C524 349.276 527.536 352.651 530.461 356.959C545.347 379.024 445.364 366.185 445.364 366.185Z" fill="#FFC568"/>
<path d="M536.813 331.332C540.242 307.407 509.485 293.052 509.485 293.052C517.355 281.354 523.122 275.107 527.351 272.315C539.499 264.179 538.862 284.331 538.862 284.331C538.862 284.331 547.369 256.843 571.799 264.02C576.77 265.456 582.407 268.352 588.786 273.218C626.374 301.93 536.813 331.332 536.813 331.332Z" fill="#FFC568"/>
<path d="M509.454 254.27C509.367 254.701 509.281 255.161 509.195 255.594C509.195 255.623 509.166 255.623 509.166 255.623C502.061 264.915 495.76 271.186 495.76 271.186C479.853 172.227 342.633 166.588 342.633 166.588C342.633 166.588 317.663 124.559 324.165 113.943C330.005 104.423 342.779 116.475 345.281 118.95C348.272 128.212 354.371 136.382 362.197 142.166C367.173 145.849 372.898 148.523 378.967 149.876C377.184 154.248 379.371 159.427 382.938 162.504C386.505 165.611 391.138 167.048 395.682 168.401C414.782 174.01 434.2 178.758 452.496 186.611C470.792 194.464 488.139 205.712 499.79 221.88C506.575 231.255 511.35 242.848 509.454 254.27Z" fill="#D49F4A"/>
<path d="M456.09 150.046C456.378 149.586 456.607 149.096 456.809 148.607C456.752 148.779 456.693 148.924 456.666 149.067C456.491 149.414 456.289 149.729 456.09 150.046Z" fill="#D49F4A"/>
<path d="M266.534 168.372C266.588 184.613 265.045 198.89 265.045 198.89C211.719 202.479 181.464 262.453 181.464 262.453C87.1448 176.32 154.801 196.311 154.801 196.311C154.801 196.311 144.567 183.499 146.614 175.309C148.661 167.095 153.286 171.188 153.286 171.188C153.286 171.188 125.08 37.3908 141.482 32.7657C143.635 32.1532 146.639 33.8827 150.255 37.3908C149.645 37.3908 149.059 37.4695 148.474 37.6565C144.619 38.8792 142.333 43.0787 142.041 47.1478C141.721 51.1873 142.97 55.1752 144.06 59.0844C156.314 103.906 147.436 154.548 170.086 195.14C172.851 200.058 177.956 205.456 183.191 203.355C186.54 201.999 188.055 198.198 189.12 194.769C193.081 181.929 195.686 168.689 196.882 155.345C200.23 164.118 204.113 172.918 210.334 179.988C216.529 187.059 225.38 192.296 234.791 192.242C245.052 192.164 254.489 185.782 260.738 177.622C262.944 174.726 264.858 171.616 266.534 168.372Z" fill="#D49F4A"/>
<path d="M323.078 244.508C323.078 244.508 242.821 276.648 234.606 358.686C234.606 358.686 191.94 341.805 188.936 314.637C189.229 314.504 189.521 314.372 189.841 314.29C196.966 312.244 202.496 316.684 209.778 311.181C215.626 306.767 219.215 300.095 222.539 293.556C221.129 296.986 223.176 301.399 226.606 303.099C230.301 304.959 234.899 304.083 238.437 301.955C241.999 299.827 244.71 296.585 247.369 293.421C257.709 281.059 268.025 268.699 278.34 256.364C279.536 258.809 282.832 259.66 285.465 258.915C288.097 258.145 290.223 256.204 292.164 254.29C298.624 247.857 304.445 240.838 309.55 233.288C313.774 236.161 318.266 239.856 323.078 244.508Z" fill="#D49F4A"/>
<path d="M161.473 394.23C161.473 394.23 61.49 407.043 76.3764 385.005C80.0986 379.45 84.9106 375.514 90.013 372.67C92.5912 374.505 95.3023 376.153 98.1487 377.536C105.992 381.285 115.323 382.798 123.405 379.61C131.486 376.419 137.654 367.727 136.138 359.193C134.97 352.6 129.732 347.389 123.884 344.226C126.303 345.527 133.427 339.6 134.943 338.112C138.001 335.108 140.207 331.359 141.243 327.214C143.184 319.636 140.34 313.629 138.798 306.398C138.692 305.84 138.611 305.308 138.559 304.777C143.848 302.012 150.07 299.328 157.382 296.801C157.382 296.801 138.399 361.931 161.473 394.23Z" fill="#D49F4A"/>
<path d="M88.3404 274.256C86.852 272.795 85.8951 270.933 85.7622 268.807C87.5434 270.003 88.3946 272.131 88.3404 274.256Z" fill="#D49F4A"/>
<path d="M95.172 309.454C95.172 309.454 5.61029 280.052 43.226 251.34C43.5704 251.074 43.9443 250.809 44.2887 250.543C48.5153 261.444 57.9524 271.12 67.4436 277.846C70.4204 279.92 73.69 281.728 77.3064 282.151C80.8957 282.549 84.8295 281.381 86.9575 278.456C87.8358 277.26 88.3131 275.745 88.3401 274.256C91.1324 277.022 95.7034 278.296 99.5855 277.049C105.487 275.162 109.261 269.1 110.299 263.011C110.698 260.566 110.752 258.12 110.565 255.675C113.889 259.183 117.823 264.209 122.502 271.174C122.502 271.174 91.745 285.529 95.172 309.454Z" fill="#D49F4A"/>
<path d="M445.364 366.185C466.366 336.81 452.543 280.266 449.883 270.295C450.469 270.03 451.052 269.791 451.665 269.577C452.383 269.284 453.126 269.046 453.871 268.832C461.739 266.519 470.886 267.688 477.026 273.139C480.402 276.116 482.741 280.955 481.253 285.128C481.174 285.315 481.093 285.526 481.014 285.713C480.163 287.6 478.62 289.037 477.186 290.525C468.226 299.884 463.151 313.176 464.797 326.015C466.445 338.882 475.191 350.846 487.393 355.259C496.245 358.45 506.88 357.227 514.721 351.99C516.421 350.846 518.229 348.454 520.143 346.673C523.998 349.278 527.533 352.654 530.458 356.961C545.347 379.024 445.364 366.185 445.364 366.185Z" fill="#D49F4A"/>
<path d="M311 704.5C422.131 704.5 509.5 666.663 509.5 657C509.5 647.337 417.5 626.5 311 657C213 628.5 119 647.337 119 657C119 666.663 199.869 704.5 311 704.5Z" fill="white" fill-opacity="0.65"/>
<path d="M504.805 442.398C506.221 442.871 505.868 444.493 504.865 445.093C505.494 445.922 505.483 447.335 504.225 447.842C478.16 458.663 458.961 475.988 441.72 497.741C467.586 507.192 488.533 528.734 500.161 553.321C500.451 553.946 500.291 554.475 499.966 554.828C500.363 555.757 500.148 556.876 498.896 557.212C480.73 562.105 462.535 566.953 444.338 571.777C444.378 571.918 444.439 572.033 444.458 572.201C445.579 586.045 447.111 599.868 449.052 613.644C450.712 625.359 454.384 637.65 452.994 649.514C452.962 649.663 452.904 649.791 452.821 649.922C453.311 650.816 453.187 652.096 451.949 652.552C424.934 662.725 397.596 671.961 369.892 680.119C343.979 687.759 316.968 696.447 290.077 699.719C289.26 699.811 288.951 698.58 289.725 698.322C290.406 698.1 291.063 697.88 291.743 697.657C317.641 689.24 344.7 684.002 370.805 676.122C397.689 668.032 424.264 658.931 450.528 649.012C450.739 648.94 450.931 648.918 451.126 648.921C449.766 623.445 443.362 598.124 441.195 572.617C430.914 575.333 420.659 578.07 410.377 580.785C382.4 588.244 354.395 596.971 325.926 602.44C325.448 602.518 325.085 602.316 324.876 601.974C324.206 602.074 323.45 601.843 323.069 601.058C309.979 575.589 292.455 555.487 271.727 536.111C271.561 536.154 271.369 536.176 271.179 536.221C271.185 536.269 271.212 536.291 271.217 536.339C278.875 589.435 287.99 642.928 292.74 696.352C292.803 697.124 292.291 697.547 291.738 697.609C291.402 697.647 291.049 697.54 290.779 697.303C290.507 697.918 289.848 698.333 289.076 697.957C274.119 690.709 259.263 683.279 244.367 675.927C232.15 669.88 218.998 664.619 208.15 656.251C208.094 656.184 208.038 656.117 208.006 656.048C207.378 656.094 206.71 655.78 206.551 655.019C202.571 636.751 198.578 618.143 196.822 599.527C170.047 589.132 143.782 576.561 120.126 560.362C119.177 559.715 119.834 558.205 120.795 558.096C120.988 558.075 121.209 558.099 121.418 558.221C150.982 574.801 180.489 590.219 212.429 601.737C222.365 574.989 243.267 549.879 267.949 535.636C241.971 527.56 214.98 519.136 190.364 507.597C161.253 516.01 137.295 529.977 121.934 557.189C121.649 557.684 121.214 557.928 120.758 557.979C119.679 558.125 118.526 557.184 119.168 555.968C132.872 530.475 159.559 508.315 189.28 505.747C168.945 485.329 144.77 475.541 116.373 470.196C114.41 469.833 114.678 467.028 116.355 466.791C116.462 466.657 116.595 466.545 116.782 466.475C171.863 447.908 230.661 436.419 287.596 425.238C288.667 425.02 289.28 425.705 289.398 426.544C310.678 432.666 328.904 450.133 338.444 469.796C338.991 469.685 339.539 469.575 340.086 469.465C340.206 469.451 340.326 469.438 340.425 469.451C350.986 444.361 370.319 423.468 393.324 409.243C394.007 408.825 394.702 408.942 395.207 409.323C395.426 409.104 395.73 408.996 396.08 409.079C432.781 418.138 469.077 430.09 504.805 442.398ZM439.334 496.866C453.473 473.077 477.042 455.43 502.279 444.824C466.817 433.581 431.031 423.129 395.747 411.307C395.646 411.489 395.469 411.654 395.243 411.802C372.129 426.574 355.428 446.197 342.665 470.318C374.407 478.792 405.977 487.674 437.869 495.741C438.446 495.895 438.78 496.271 438.954 496.738C439.08 496.773 439.208 496.831 439.334 496.866ZM496.821 553.697C483.907 528.72 464.308 512.015 439.453 499.651C439.255 499.625 439.052 499.55 438.892 499.422C438.778 500.141 438.319 500.825 437.414 501C383.096 511.644 329.307 526.122 274.782 535.572C296.838 552.049 313.996 575.38 326.12 599.838C326.15 599.884 326.131 599.934 326.16 599.98C353.91 590.502 382.925 584.047 411.258 576.5C439.777 568.883 468.264 561.197 496.821 553.697ZM433.524 498.007C402.652 491.431 371.323 483.179 341.634 472.625C341.546 472.708 341.456 472.767 341.368 472.85C343.633 487.344 344.942 501.994 346.894 516.524C348.675 516.129 350.435 515.76 352.215 515.365C379.265 509.398 406.275 503.071 433.524 498.007ZM344.448 517.067C342.429 502.594 340.33 488.057 339.731 473.448C291.066 483.284 243.191 496.026 194.794 506.952C220.177 514.924 245.178 524.911 270.361 533.49C270.659 533.116 271.201 532.957 271.731 533.336C271.808 533.376 271.888 533.44 271.969 533.504C295.88 527.112 320.258 522.274 344.448 517.067ZM335.256 470.447C324.065 450.605 308.371 438.329 287.983 428.675C259.347 434.601 230.783 440.738 202.337 447.495C175.363 453.915 148.641 461.719 121.597 467.734C147.715 473.165 175.539 483.151 191.654 505.431C191.675 505.405 191.696 505.378 191.72 505.375C238.404 490.261 287.173 480.048 335.256 470.447ZM290.162 695.498C290.186 695.496 290.191 695.544 290.215 695.541C281.135 643.432 275.557 590.442 268.268 538.034C244.495 556.677 227.734 577.062 214.516 604.496C214.082 605.396 213.193 605.496 212.519 605.134C212.257 605.188 211.964 605.172 211.659 605.061C207.274 603.51 202.904 601.885 198.554 600.208C202.338 618.255 205.17 636.483 209.029 654.545C209.152 654.556 209.28 654.614 209.409 654.673C234.76 670.583 263.433 682.055 290.162 695.498Z" fill="#3F2007"/>
<path d="M489.713 443.464C490.547 443.955 490.288 445.541 489.184 445.252C487.205 444.745 485.326 443.837 483.38 443.204C480.983 442.452 478.544 441.972 476.121 441.417C475.22 441.202 475.419 439.939 476.327 440.007C480.598 440.329 485.942 441.309 489.713 443.464Z" fill="#3F2007"/>
<path d="M484.004 445.714C485.254 446.23 484.413 448.053 483.149 447.635C481.027 446.95 478.865 446.122 476.861 445.18C476.011 444.764 476.377 443.263 477.355 443.517C479.562 444.096 481.863 444.86 484.004 445.714Z" fill="#3F2007"/>
<path d="M487.401 545.266C487.678 546.208 486.423 546.739 486.005 545.837C484.679 542.92 483.43 540.261 481.237 537.855C480.79 537.346 481.627 536.57 482.069 537.032C484.345 539.306 486.539 542.15 487.401 545.266Z" fill="#3F2007"/>
<path d="M485.574 548.709C485.802 549.657 484.235 550.003 483.94 549.112C483.098 546.602 482.096 544.403 480.29 542.416C479.763 541.843 480.707 540.933 481.255 541.48C483.253 543.445 484.918 545.911 485.574 548.709Z" fill="#3F2007"/>
<path d="M502.279 444.824C477.042 455.43 453.473 473.077 439.334 496.866C439.208 496.831 439.08 496.773 438.954 496.738C438.78 496.271 438.446 495.895 437.869 495.741C405.977 487.674 374.407 478.792 342.665 470.318C355.428 446.197 372.129 426.574 395.243 411.802C395.469 411.654 395.645 411.489 395.747 411.307C431.031 423.129 466.817 433.581 502.279 444.824ZM489.184 445.252C490.288 445.541 490.547 443.954 489.713 443.464C485.942 441.309 480.598 440.329 476.327 440.007C475.419 439.938 475.22 441.202 476.121 441.417C478.544 441.972 480.983 442.452 483.38 443.204C485.326 443.837 487.205 444.745 489.184 445.252ZM483.149 447.635C484.413 448.053 485.254 446.23 484.004 445.714C481.863 444.859 479.562 444.096 477.355 443.517C476.377 443.262 476.011 444.764 476.861 445.179C478.865 446.122 481.027 446.949 483.149 447.635Z" fill="#9B743D"/>
<path d="M439.453 499.651C464.308 512.016 483.907 528.72 496.821 553.698C468.264 561.197 439.777 568.883 411.258 576.5C382.925 584.047 353.91 590.503 326.161 599.98C326.131 599.934 326.15 599.884 326.12 599.838C313.996 575.38 296.838 552.049 274.782 535.572C329.307 526.122 383.096 511.644 437.414 501.001C438.32 500.826 438.778 500.141 438.892 499.423C439.052 499.551 439.255 499.625 439.453 499.651ZM486.005 545.837C486.423 546.739 487.678 546.209 487.401 545.266C486.539 542.15 484.345 539.307 482.069 537.032C481.627 536.57 480.79 537.346 481.237 537.855C483.43 540.261 484.679 542.92 486.005 545.837ZM483.94 549.112C484.235 550.004 485.803 549.657 485.574 548.709C484.918 545.911 483.253 543.445 481.255 541.48C480.707 540.933 479.763 541.843 480.29 542.416C482.096 544.403 483.098 546.603 483.94 549.112ZM300.386 543.35C301.145 544.043 302.19 542.733 301.367 542.12C299.711 540.821 297.896 539.833 295.895 539.134C295.187 538.897 294.718 539.923 295.432 540.208C297.27 540.974 298.896 542.008 300.386 543.35ZM296.582 546.747C297.218 547.211 298.243 546.366 297.635 545.728C294.96 542.938 291.72 540.529 288.698 538.119C288.03 537.585 287.264 538.572 287.89 539.159C290.664 541.743 293.488 544.564 296.582 546.747Z" fill="#845F34"/>
<path d="M441.195 572.617C443.362 598.124 449.766 623.445 451.126 648.921C450.931 648.918 450.739 648.94 450.528 649.012C424.264 658.931 397.689 668.032 370.805 676.122C344.7 684.003 317.641 689.24 291.743 697.657L291.738 697.609C292.291 697.547 292.803 697.124 292.74 696.352C287.99 642.928 278.875 589.436 271.217 536.339C271.212 536.291 271.185 536.269 271.179 536.221C271.369 536.176 271.561 536.154 271.727 536.111C292.455 555.487 309.979 575.589 323.069 601.058C323.45 601.843 324.206 602.074 324.876 601.974C325.085 602.316 325.448 602.518 325.926 602.44C354.395 596.971 382.4 588.244 410.377 580.785C420.659 578.07 430.914 575.333 441.195 572.617ZM437.192 583.753C438.423 583.225 437.675 581.338 436.415 581.82C433.614 582.89 430.841 583.762 427.847 584.197C426.768 584.343 426.95 585.953 428.037 585.879C431.175 585.648 434.315 585.002 437.192 583.753ZM434.447 580.557C435.571 580.163 435.133 578.217 433.92 578.475C430.043 579.276 426.258 580.676 422.497 581.854C421.536 582.182 421.923 583.89 422.94 583.63C426.753 582.689 430.728 581.901 434.447 580.557ZM314.889 684.901C315.772 684.315 314.915 682.757 314 683.273C309.669 685.66 305.651 687.158 300.835 688.261C300.098 688.417 300.19 689.453 300.967 689.438C305.793 689.284 310.879 687.543 314.889 684.901ZM314.199 682.448C315.668 682.088 315.168 680.027 313.707 680.459C310.976 681.277 308.136 681.987 305.474 682.992C304.657 683.303 304.956 684.657 305.837 684.485C308.654 683.997 311.431 683.149 314.199 682.448Z" fill="#845F34"/>
<path d="M436.415 581.82C437.674 581.337 438.422 583.225 437.192 583.753C434.315 585.002 431.175 585.647 428.037 585.879C426.95 585.953 426.768 584.342 427.847 584.197C430.841 583.762 433.614 582.89 436.415 581.82Z" fill="#3F2007"/>
<path d="M433.92 578.475C435.133 578.217 435.571 580.163 434.447 580.557C430.728 581.901 426.753 582.689 422.94 583.63C421.923 583.89 421.536 582.182 422.497 581.854C426.258 580.676 430.043 579.276 433.92 578.475Z" fill="#3F2007"/>
<path d="M341.634 472.625C371.323 483.179 402.652 491.431 433.524 498.007C406.275 503.071 379.265 509.398 352.215 515.365C350.435 515.76 348.675 516.129 346.894 516.524C344.942 501.995 343.633 487.344 341.368 472.85C341.456 472.767 341.546 472.708 341.634 472.625ZM352.323 505.301C352.603 506.486 354.486 506.347 354.294 505.079C353.836 502.088 353.203 498.849 352.248 495.988C351.991 495.213 350.864 495.584 350.924 496.331C351.062 499.285 351.659 502.431 352.323 505.301ZM349.892 506.183C349.857 502.415 348.98 498.522 348.39 494.791C348.282 494.049 347.176 494.174 347.236 494.921C347.487 498.666 347.501 502.68 348.305 506.362C348.539 507.358 349.885 507.206 349.892 506.183Z" fill="#74522D"/>
<path d="M354.294 505.079C354.486 506.347 352.603 506.486 352.323 505.301C351.659 502.43 351.062 499.285 350.924 496.331C350.864 495.584 351.991 495.213 352.248 495.987C353.203 498.849 353.836 502.088 354.294 505.079Z" fill="#3F2007"/>
<path d="M348.39 494.791C348.98 498.522 349.857 502.415 349.892 506.183C349.885 507.206 348.539 507.358 348.305 506.362C347.501 502.68 347.487 498.666 347.236 494.921C347.176 494.174 348.282 494.049 348.39 494.791Z" fill="#3F2007"/>
<path d="M339.731 473.448C340.33 488.057 342.429 502.594 344.448 517.067C320.258 522.274 295.88 527.112 271.969 533.504C271.888 533.44 271.808 533.376 271.731 533.336C271.201 532.958 270.659 533.116 270.361 533.49C245.178 524.911 220.177 514.924 194.794 506.952C243.191 496.026 291.066 483.284 339.731 473.448Z" fill="#74522D"/>
<path d="M320.514 460.57C321.012 461.536 319.43 462.396 318.843 461.513C317.786 459.904 316.849 458.281 315.679 456.758C314.51 455.235 313.17 453.925 311.915 452.509C311.361 451.914 312.274 451.154 312.857 451.575C315.91 453.836 318.749 457.215 320.514 460.57Z" fill="#3F2007"/>
<path d="M287.983 428.674C308.371 438.329 324.065 450.605 335.256 470.447C287.173 480.048 238.404 490.261 191.72 505.375C191.696 505.378 191.675 505.405 191.654 505.431C175.539 483.15 147.715 473.165 121.597 467.734C148.641 461.719 175.363 453.915 202.337 447.495C230.783 440.738 259.347 434.601 287.983 428.674ZM318.843 461.513C319.429 462.396 321.012 461.536 320.514 460.57C318.749 457.216 315.91 453.836 312.856 451.575C312.274 451.154 311.361 451.914 311.915 452.509C313.17 453.925 314.51 455.235 315.679 456.758C316.849 458.281 317.786 459.904 318.843 461.513ZM312.847 463.162C313.196 464.315 314.917 463.61 314.569 462.457C313.742 459.653 311.682 457.354 309.142 455.985C308.496 455.644 307.88 456.663 308.487 457.081C310.722 458.557 312.071 460.596 312.847 463.162Z" fill="#845F34"/>
<path d="M314.569 462.457C314.917 463.61 313.196 464.315 312.847 463.162C312.071 460.596 310.722 458.558 308.487 457.081C307.88 456.663 308.496 455.644 309.142 455.985C311.682 457.354 313.742 459.654 314.569 462.457Z" fill="#3F2007"/>
<path d="M301.367 542.119C302.19 542.732 301.145 544.043 300.385 543.349C298.896 542.008 297.27 540.974 295.432 540.208C294.718 539.923 295.187 538.897 295.895 539.133C297.896 539.833 299.711 540.821 301.367 542.119Z" fill="#3F2007"/>
<path d="M314 683.273C314.915 682.757 315.772 684.315 314.889 684.901C310.879 687.543 305.793 689.284 300.967 689.438C300.19 689.453 300.098 688.417 300.835 688.261C305.651 687.159 309.669 685.66 314 683.273Z" fill="#3F2007"/>
<path d="M313.707 680.459C315.168 680.027 315.668 682.088 314.199 682.448C311.43 683.149 308.654 683.997 305.837 684.485C304.956 684.657 304.657 683.303 305.474 682.992C308.136 681.987 310.976 681.277 313.707 680.459Z" fill="#3F2007"/>
<path d="M297.635 545.728C298.242 546.365 297.218 547.211 296.582 546.747C293.488 544.564 290.664 541.743 287.89 539.159C287.264 538.572 288.029 537.585 288.698 538.118C291.72 540.528 294.96 542.938 297.635 545.728Z" fill="#3F2007"/>
<path d="M290.215 695.541C290.191 695.544 290.186 695.496 290.162 695.498C263.433 682.055 234.76 670.584 209.409 654.673C209.28 654.615 209.152 654.556 209.029 654.545C205.17 636.483 202.338 618.255 198.554 600.208C202.904 601.885 207.274 603.51 211.659 605.061C211.964 605.172 212.257 605.188 212.519 605.134C213.193 605.496 214.082 605.396 214.516 604.496C227.734 577.062 244.495 556.677 268.268 538.034C275.557 590.442 281.135 643.432 290.215 695.541ZM231.339 660.089C232.139 660.705 233.427 659.611 232.681 658.819C230.281 656.314 226.962 654.717 223.619 653.998C222.799 653.847 222.408 655.132 223.194 655.409C226.265 656.523 228.759 658.141 231.339 660.089ZM229.086 662.777C229.853 662.885 230.346 661.856 229.707 661.368C228.188 660.201 226.245 659.592 224.644 658.555C223.013 657.473 221.534 656.228 220.055 654.983C219.384 654.426 218.346 655.37 218.935 656.059C220.353 657.627 221.987 658.952 223.751 660.141C225.329 661.18 227.182 662.505 229.086 662.777Z" fill="#9B743D"/>
<path d="M190.364 507.597C214.98 519.136 241.971 527.56 267.949 535.636C243.267 549.879 222.365 574.989 212.429 601.737C180.489 590.219 150.982 574.801 121.418 558.221C121.209 558.098 120.988 558.075 120.795 558.096L120.758 557.979C121.214 557.928 121.649 557.684 121.934 557.189C137.295 529.977 161.253 516.01 190.364 507.597ZM197.112 591.511C198.101 591.862 198.657 590.534 197.775 590.049C194.11 587.979 189.973 586.474 186.114 584.84C185.398 584.531 184.935 585.605 185.632 585.965C189.372 587.832 193.176 590.056 197.112 591.511ZM193.624 593.17C194.46 593.465 195.281 592.326 194.465 591.785C192.225 590.261 189.718 589.18 187.294 587.968C184.61 586.615 181.94 585.164 179.163 584.065C178.476 583.801 177.759 584.783 178.468 585.238C180.724 586.688 183.17 587.873 185.551 589.138C188.19 590.52 190.831 592.146 193.624 593.17Z" fill="#9B743D"/>
<path d="M232.681 658.819C233.427 659.611 232.139 660.705 231.339 660.089C228.759 658.141 226.265 656.523 223.194 655.409C222.408 655.132 222.799 653.847 223.619 653.998C226.962 654.717 230.281 656.314 232.681 658.819Z" fill="#3F2007"/>
<path d="M229.707 661.368C230.346 661.856 229.853 662.885 229.086 662.777C227.182 662.505 225.329 661.18 223.751 660.141C221.987 658.952 220.353 657.627 218.935 656.059C218.346 655.37 219.384 654.426 220.055 654.983C221.534 656.228 223.013 657.474 224.644 658.555C226.245 659.592 228.188 660.201 229.707 661.368Z" fill="#3F2007"/>
<path d="M197.775 590.049C198.657 590.534 198.101 591.862 197.112 591.511C193.176 590.056 189.372 587.832 185.632 585.965C184.935 585.605 185.398 584.531 186.114 584.84C189.973 586.474 194.11 587.979 197.775 590.049Z" fill="#3F2007"/>
<path d="M194.466 591.785C195.281 592.326 194.46 593.465 193.624 593.17C190.831 592.146 188.19 590.52 185.552 589.138C183.17 587.873 180.724 586.688 178.468 585.238C177.759 584.783 178.476 583.801 179.163 584.065C181.94 585.164 184.61 586.616 187.294 587.968C189.718 589.18 192.225 590.261 194.466 591.785Z" fill="#3F2007"/>
<mask id="mask0_84_166" style="mask-type:alpha" maskUnits="userSpaceOnUse" x="230" y="366" width="210" height="168">
<path d="M230 366H440L431 498.5L271 533.5L238.5 524L230 366Z" fill="#D9D9D9"/>
</mask>
<g mask="url(#mask0_84_166)">
<path d="M430.012 532.433L291.893 532.432V504.122L430.012 504.123C433.414 504.123 436.172 506.88 436.172 510.282V526.273C436.172 529.675 433.414 532.433 430.012 532.433Z" fill="#576961"/>
<path d="M427.148 526.708H407.752C407.752 524.896 406.283 523.426 404.471 523.426V513.129C406.283 513.129 407.752 511.66 407.752 509.848H427.148C427.148 511.66 428.617 513.129 430.431 513.129V523.426C428.618 523.426 427.148 524.896 427.148 526.708Z" fill="#6C8279"/>
<path d="M368.984 525.069L237.554 525.068C240.72 521.084 240.72 515.47 237.554 511.485L368.984 511.486V525.069Z" fill="#FFF8E8"/>
<path d="M369.478 523.447L242.603 522.905L369.478 522.363V523.447Z" fill="#EDE8D7"/>
<path d="M369.478 520.361L246.018 519.82L369.478 519.276V520.361Z" fill="#EDE8D7"/>
<path d="M369.478 517.276L246.018 516.734L369.478 516.191V517.276Z" fill="#EDE8D7"/>
<path d="M369.479 514.19L242.604 513.649L369.479 513.106V514.19Z" fill="#EDE8D7"/>
<path d="M371.946 504.122L235.231 504.121C234.456 504.121 233.827 504.749 233.827 505.524V509.258C233.827 510.488 234.825 511.485 236.054 511.485L359.275 511.486C363.026 511.486 366.066 514.527 366.067 518.277C366.067 522.028 363.026 525.068 359.276 525.068L236.055 525.067C234.826 525.067 233.828 526.065 233.828 527.294V531.029C233.828 531.803 234.457 532.432 235.232 532.432L371.947 532.433C375.349 532.433 378.108 529.675 378.108 526.273V510.282C378.107 506.88 375.349 504.122 371.946 504.122Z" fill="#6C8279"/>
<path d="M242.075 435.523L423.761 435.523L423.761 430.458L242.075 430.458L242.075 435.523Z" fill="#6C8279"/>
<path d="M242.075 457.847L423.761 457.847L423.761 452.782L242.075 452.782L242.075 457.847Z" fill="#6C8279"/>
<path d="M310.134 457.847H423.761V430.458H310.134V457.847Z" fill="#6C8279"/>
<path d="M314.298 457.847H427.926V430.458H314.298V457.847Z" fill="#576961"/>
<path d="M398.18 454.441C403.862 454.441 408.468 449.834 408.468 444.153C408.468 438.471 403.862 433.865 398.18 433.865C392.498 433.865 387.892 438.471 387.892 444.153C387.892 449.834 392.498 454.441 398.18 454.441Z" fill="#6C8279"/>
<path d="M415.432 457.847H423.761V430.458H415.432V457.847Z" fill="#6C8279"/>
<path d="M318.555 457.847H324.244V430.458H318.555V457.847Z" fill="#6C8279"/>
<path d="M245.797 435.523C245.797 435.523 250.902 443.785 245.797 452.781H310.134V435.523H245.797Z" fill="#FFF8E8"/>
<path d="M310.134 450.762L252.16 450.338L310.134 449.915V450.762Z" fill="#EDE8D7"/>
<path d="M310.134 446.639L253.72 446.215L310.134 445.79V446.639Z" fill="#EDE8D7"/>
<path d="M310.134 442.515L253.72 442.091L310.134 441.667V442.515Z" fill="#EDE8D7"/>
<path d="M310.134 438.39L252.161 437.968L310.134 437.543V438.39Z" fill="#EDE8D7"/>
<path d="M438.742 472.823H231.259C230.564 472.823 230 473.387 230 474.082V477.923C230 478.619 230.564 479.183 231.259 479.183H438.741C439.436 479.183 440 478.619 440 477.923V474.082C440.001 473.387 439.437 472.823 438.742 472.823Z" fill="#E687AE"/>
<path d="M438.742 457.847H231.259C230.564 457.847 230 458.411 230 459.107V462.948C230 463.643 230.564 464.207 231.259 464.207H438.741C439.436 464.207 440 463.643 440 462.948V459.107C440.001 458.411 439.437 457.847 438.742 457.847Z" fill="#E687AE"/>
<path d="M437.164 464.207H330.919H232.836C232.836 464.207 237.84 468.515 232.836 472.823H339.081H437.164C437.164 472.823 432.16 468.515 437.164 464.207Z" fill="#FFF8E8"/>
<path d="M238.7 465.712C300.118 465.412 369.014 465.41 430.431 465.712C369.014 466.015 300.117 466.013 238.7 465.712Z" fill="#EDE8D7"/>
<path d="M238.7 467.58C298.464 467.28 365.508 467.278 425.272 467.58C365.507 467.883 298.464 467.881 238.7 467.58Z" fill="#EDE8D7"/>
<path d="M238.7 469.449C298.464 469.149 365.508 469.147 425.272 469.449C365.507 469.751 298.464 469.75 238.7 469.449Z" fill="#EDE8D7"/>
<path d="M238.7 471.317C300.118 471.017 369.014 471.015 430.431 471.317C369.014 471.62 300.117 471.618 238.7 471.317Z" fill="#EDE8D7"/>
<path d="M413.953 371.976H256.048C255.353 371.976 254.789 372.539 254.789 373.235V377.076C254.789 377.771 255.353 378.335 256.048 378.335H413.953C414.648 378.335 415.212 377.771 415.212 377.076V373.235C415.212 372.539 414.648 371.976 413.953 371.976Z" fill="#FFC568"/>
<path d="M412.375 363.36H355.708H257.626C257.626 363.36 262.63 367.668 257.626 371.976H363.871H412.376C412.376 371.976 407.371 367.668 412.375 363.36Z" fill="#FFF8E8"/>
<path d="M261.856 366.733C307.184 366.471 358.033 366.469 403.362 366.733C358.033 366.997 307.184 366.995 261.856 366.733Z" fill="#EDE8D7"/>
<path d="M261.856 368.601C307.184 368.34 358.033 368.338 403.362 368.601C358.033 368.865 307.184 368.863 261.856 368.601Z" fill="#EDE8D7"/>
<path d="M261.856 370.469C308.438 370.207 360.692 370.206 407.274 370.469C360.692 370.733 308.437 370.731 261.856 370.469Z" fill="#EDE8D7"/>
<path d="M421.482 425.556C421.482 425.556 415.912 406.998 421.482 400.658H359.107V425.556H421.482Z" fill="#E0DBCC"/>
<path d="M359.109 404.384L416.321 404.87L359.109 405.355V404.384Z" fill="#D6D1C2"/>
<path d="M359.109 409.875L414.781 410.361L359.109 410.847V409.875Z" fill="#D6D1C2"/>
<path d="M359.109 415.367L414.781 415.853L359.109 416.339V415.367Z" fill="#D6D1C2"/>
<path d="M359.109 420.858L416.321 421.344L359.109 421.83V420.858Z" fill="#D6D1C2"/>
<path d="M359.109 430.468H423.944C424.577 430.468 425.091 429.954 425.091 429.32V426.705C425.091 426.071 424.577 425.557 423.944 425.557H361.535C360.195 425.557 359.109 424.472 359.109 423.132V403.085C359.109 401.745 360.194 400.659 361.535 400.659H423.944C424.577 400.659 425.091 400.145 425.091 399.511V396.896C425.091 396.262 424.577 395.749 423.944 395.749H248.947V400.66V425.558V430.47L359.109 430.468Z" fill="#909E5B"/>
<path d="M248.661 430.468H355.07H352.743C350.671 430.468 348.992 428.788 348.992 426.717V399.498C348.992 397.426 350.671 395.747 352.742 395.747H248.661C246.589 395.747 244.91 397.426 244.91 399.498V426.717C244.91 428.788 246.59 430.468 248.661 430.468Z" fill="#AABB6C"/>
<path d="M262.681 395.747H254.606V430.468H262.681V395.747Z" fill="#99A861"/>
<path d="M282.334 395.747H269.891V430.468H282.334V395.747Z" fill="#99A861"/>
<path d="M339.776 395.747H334.261V430.468H339.776V395.747Z" fill="#99A861"/>
<path d="M423.767 378.335H246.234C243.004 378.335 240.385 380.954 240.385 384.184V389.87C240.385 393.1 243.004 395.718 246.234 395.718H423.766C426.997 395.718 429.615 393.1 429.615 389.87V384.184C429.616 380.954 426.997 378.335 423.767 378.335Z" fill="#E687AE"/>
<path d="M414.244 378.298H394.609V395.755H414.244V378.298Z" fill="#BA6D8C"/>
<path d="M384.645 378.298H375.069V395.755H384.645V378.298Z" fill="#E89BBB"/>
<path d="M261.343 378.298H251.766V395.755H261.343V378.298Z" fill="#BA6D8C"/>
<path d="M422.04 479.217H247.962C245.002 479.217 242.604 481.615 242.604 484.575V498.73C242.604 501.689 245.002 504.088 247.962 504.088H422.039C424.998 504.088 427.397 501.689 427.397 498.73V484.575C427.398 481.615 424.998 479.217 422.04 479.217Z" fill="#FFC568"/>
<path d="M383.589 499.427C387.891 496.717 389.181 491.032 386.471 486.73C383.761 482.428 378.077 481.138 373.775 483.848C369.473 486.558 368.182 492.242 370.892 496.544C373.602 500.846 379.287 502.137 383.589 499.427Z" fill="#D49F4A"/>
<path d="M360.788 491.651C360.788 494.508 358.472 496.824 355.616 496.824C352.759 496.824 350.443 494.509 350.443 491.651C350.443 488.795 352.759 486.479 355.616 486.479C358.472 486.479 360.788 488.795 360.788 491.651Z" fill="#D49F4A"/>
<path d="M413.315 479.182H395.326V504.121H413.315V479.182Z" fill="#D49F4A"/>
<path d="M261.804 479.182H253.031V504.121H261.804V479.182Z" fill="#D49F4A"/>
</g>
<mask id="mask1_84_166" style="mask-type:alpha" maskUnits="userSpaceOnUse" x="162" y="392" width="172" height="142">
<path d="M162 415.5L314 392.5L334 519.5L269 534L223.5 519.5L190 505.5L162 473V415.5Z" fill="#D9D9D9"/>
</mask>
<g mask="url(#mask1_84_166)">
<path d="M311.162 520.415L229.069 531.893L226.717 515.066L308.809 503.589C310.831 503.306 312.7 504.716 312.983 506.738L314.311 516.242C314.594 518.264 313.184 520.133 311.162 520.415Z" fill="#BA6D8C"/>
<path d="M306.21 503.952L302.43 504.48C304.452 504.198 306.321 505.608 306.604 507.63L307.932 517.134C308.215 519.156 306.805 521.025 304.783 521.308L308.563 520.779C310.585 520.497 311.995 518.628 311.712 516.606L310.384 507.102C310.101 505.079 308.232 503.669 306.21 503.952Z" fill="#94576F"/>
<path d="M299.712 504.86L297.682 505.144C299.704 504.862 302.144 506.192 302.427 508.214L303.756 517.718C304.038 519.74 302.057 521.689 300.035 521.972L302.065 521.688C304.087 521.405 305.497 519.537 305.215 517.514L303.886 508.01C303.602 505.988 301.734 504.578 299.712 504.86Z" fill="#94576F"/>
<path d="M279.481 507.689L277.451 507.973C279.473 507.69 281.913 509.02 282.196 511.043L283.524 520.547C283.807 522.569 281.825 524.518 279.803 524.8L281.834 524.516C283.856 524.234 285.266 522.366 284.983 520.343L283.654 510.839C283.371 508.816 281.503 507.406 279.481 507.689Z" fill="#94576F"/>
<path d="M274.277 521.11L196.159 532.032C197.71 529.4 197.244 526.064 195.031 523.958L273.148 513.037L274.277 521.11Z" fill="#FFF8E8"/>
<path d="M284.057 518.801L197.831 530.504L283.961 518.111L284.057 518.801Z" fill="#EDE8D7"/>
<path d="M283.801 516.962L199.894 528.342L283.704 516.273L283.801 516.962Z" fill="#EDE8D7"/>
<path d="M283.544 515.125L199.637 526.504L283.448 514.434L283.544 515.125Z" fill="#EDE8D7"/>
<path d="M283.287 513.286L197.061 524.99L283.191 512.597L283.287 513.286Z" fill="#EDE8D7"/>
<path d="M274.298 508.414L193.039 519.774C192.579 519.839 192.257 520.265 192.322 520.725L192.632 522.945C192.734 523.676 193.41 524.186 194.141 524.083L267.379 513.844C269.608 513.532 271.668 515.087 271.98 517.316C272.291 519.545 270.736 521.605 268.508 521.917L195.269 532.156C194.539 532.258 194.029 532.934 194.131 533.665L194.441 535.884C194.505 536.345 194.931 536.666 195.392 536.602L276.651 525.241C278.673 524.958 280.083 523.09 279.8 521.068L278.471 511.564C278.188 509.541 276.32 508.131 274.298 508.414Z" fill="#E687AE"/>
<path d="M296.891 418.34L214.797 429.817L212.444 412.99L294.538 401.513C296.56 401.23 298.429 402.64 298.712 404.662L300.04 414.166C300.323 416.189 298.913 418.057 296.891 418.34Z" fill="#576961"/>
<path d="M294.713 415.175L283.184 416.787C283.034 415.71 282.039 414.958 280.961 415.109L280.106 408.989C281.183 408.838 281.934 407.843 281.783 406.766L293.312 405.154C293.463 406.231 294.458 406.982 295.535 406.831L296.391 412.952C295.314 413.102 294.562 414.098 294.713 415.175Z" fill="#6C8279"/>
<path d="M260.006 419.035L181.888 429.956C183.439 427.324 182.972 423.987 180.759 421.882L258.877 410.961L260.006 419.035Z" fill="#FFF8E8"/>
<path d="M260.165 418.029L184.709 428.25L260.074 417.385L260.165 418.029Z" fill="#EDE8D7"/>
<path d="M259.908 416.195L186.482 426.133L259.818 415.55L259.908 416.195Z" fill="#EDE8D7"/>
<path d="M259.652 414.362L186.226 424.299L259.562 413.717L259.652 414.362Z" fill="#EDE8D7"/>
<path d="M259.396 412.527L183.941 422.749L259.306 411.883L259.396 412.527Z" fill="#EDE8D7"/>
<path d="M260.026 406.338L178.766 417.698C178.306 417.762 177.984 418.188 178.049 418.649L178.359 420.868C178.461 421.599 179.137 422.109 179.868 422.007L253.107 411.768C255.336 411.456 257.396 413.011 257.708 415.24C258.02 417.469 256.465 419.529 254.236 419.841L180.997 430.08C180.266 430.182 179.756 430.857 179.858 431.588L180.169 433.808C180.233 434.268 180.659 434.59 181.119 434.525L262.379 423.165C264.401 422.882 265.811 421.014 265.529 418.992L264.2 409.487C263.917 407.465 262.048 406.055 260.026 406.338Z" fill="#6C8279"/>
<path d="M173.457 448.527L284.982 432.934L287.845 453.416L176.32 469.008C173.859 469.352 171.585 467.636 171.241 465.174L169.623 453.606C169.279 451.145 170.995 448.871 173.457 448.527Z" fill="#FFC568"/>
<path d="M179.484 468.565L184.085 467.922C181.624 468.266 179.35 466.55 179.005 464.088L177.388 452.52C177.044 450.059 178.76 447.785 181.222 447.44L176.62 448.084C174.159 448.428 172.443 450.702 172.787 453.163L174.404 464.732C174.748 467.193 177.022 468.909 179.484 468.565Z" fill="#D49F4A"/>
<path d="M188.541 467.299L193.142 466.656C190.681 467 188.407 465.283 188.063 462.822L186.445 451.254C186.101 448.792 187.817 446.518 190.279 446.174L185.678 446.817C183.216 447.161 181.5 449.436 181.844 451.897L183.462 463.465C183.806 465.927 186.08 467.643 188.541 467.299Z" fill="#D49F4A"/>
<path d="M223.622 462.394L226.094 462.049C223.632 462.393 220.663 460.774 220.319 458.312L218.701 446.744C218.357 444.283 220.769 441.911 223.23 441.567L220.759 441.913C218.297 442.257 216.581 444.531 216.925 446.993L218.543 458.561C218.887 461.022 221.161 462.738 223.622 462.394Z" fill="#D49F4A"/>
<path d="M229.956 446.059L313.434 434.388C311.546 437.591 312.114 441.652 314.808 444.215L231.33 455.886L229.956 446.059Z" fill="#E0DBCC"/>
<path d="M227.985 448.153L309.801 437.059L228.08 448.829L227.985 448.153Z" fill="#D6D1C2"/>
<path d="M228.245 450.014L307.861 439.228L228.34 450.69L228.245 450.014Z" fill="#D6D1C2"/>
<path d="M228.505 451.875L308.121 441.088L228.6 452.551L228.505 451.875Z" fill="#D6D1C2"/>
<path d="M228.766 453.736L310.582 442.642L228.86 454.412L228.766 453.736Z" fill="#D6D1C2"/>
<path d="M229.931 461.512L317.233 449.306C317.794 449.228 318.184 448.71 318.106 448.15L317.728 445.448C317.604 444.559 316.782 443.938 315.892 444.062L238.353 454.903C235.639 455.282 233.132 453.39 232.753 450.677C232.373 447.964 234.266 445.456 236.979 445.077L314.518 434.236C315.407 434.112 316.028 433.29 315.904 432.4L315.526 429.698C315.448 429.138 314.929 428.747 314.369 428.826L227.068 441.031C224.606 441.375 222.89 443.649 223.234 446.111L224.852 457.679C225.196 460.14 227.47 461.856 229.931 461.512Z" fill="#D49F4A"/>
<path opacity="0.15" d="M338.869 542.697L177.516 565.256C174.771 565.64 172.214 563.726 171.833 561.002C171.453 558.279 173.387 555.736 176.131 555.353L337.485 532.794C340.229 532.41 342.786 534.325 343.167 537.048C343.548 539.771 341.614 542.314 338.869 542.697Z" fill="black"/>
<path d="M324.035 518.616L188.453 537.572L188.981 541.351L324.564 522.396L324.035 518.616Z" fill="#9275A1"/>
<path d="M273.247 525.716L188.453 537.572L191.311 558.011L276.105 546.156L273.247 525.716Z" fill="#9275A1"/>
<path d="M270.139 526.151L185.345 538.006L188.203 558.446L272.997 546.591L270.139 526.151Z" fill="#B095BF"/>
<path d="M259.899 539.203C259.963 534.922 256.544 531.401 252.263 531.337C247.983 531.274 244.461 534.693 244.398 538.973C244.335 543.254 247.753 546.775 252.034 546.839C256.315 546.902 259.836 543.483 259.899 539.203Z" fill="#FFF8E8"/>
<path d="M266.962 526.595L262.717 527.189L265.575 547.628L269.82 547.035L266.962 526.595Z" fill="#9275A1"/>
<path d="M323.587 535.663C323.587 535.663 318.916 530.031 321.787 522.784L273.776 529.496L275.576 542.375L323.587 535.663Z" fill="#E0DBCC"/>
<path d="M274.095 531.784L317.461 526.018L274.177 532.367L274.095 531.784Z" fill="#D6D1C2"/>
<path d="M274.46 534.394L316.66 528.791L274.542 534.977L274.46 534.394Z" fill="#D6D1C2"/>
<path d="M274.825 537.004L317.025 531.401L274.907 537.587L274.825 537.004Z" fill="#D6D1C2"/>
<path d="M275.19 539.613L318.555 533.847L275.272 540.196L275.19 539.613Z" fill="#D6D1C2"/>
<path d="M307.661 425.909L178.773 443.929L179.302 447.709L308.19 429.689L307.661 425.909Z" fill="#BA6D8C"/>
<path d="M306.417 417.008L177.529 435.028L178.057 438.808L306.945 420.788L306.417 417.008Z" fill="#BA6D8C"/>
<path d="M255.628 424.109L177.529 435.028L179.301 447.709L257.401 436.79L255.628 424.109Z" fill="#BA6D8C"/>
<path d="M252.52 424.543L174.421 435.462L176.194 448.143L254.293 437.224L252.52 424.543Z" fill="#E687AE"/>
<path d="M240.37 432.706C240.693 435.011 239.085 437.141 236.781 437.463C234.476 437.785 232.346 436.178 232.024 433.873C231.702 431.569 233.309 429.439 235.614 429.116C237.919 428.795 240.048 430.402 240.37 432.706Z" fill="#BA6D8C"/>
<path d="M228.111 434.42C228.433 436.725 226.826 438.855 224.521 439.177C222.216 439.499 220.086 437.892 219.764 435.587C219.442 433.283 221.049 431.153 223.354 430.831C225.659 430.509 227.789 432.116 228.111 434.42Z" stroke="#E89BBB" stroke-width="0.9517" stroke-miterlimit="10"/>
<path d="M194.298 439.148C194.514 440.695 193.436 442.124 191.889 442.34C190.342 442.556 188.913 441.478 188.697 439.931C188.48 438.384 189.559 436.955 191.106 436.739C192.653 436.522 194.082 437.601 194.298 439.148Z" fill="#BA6D8C"/>
<path d="M183.744 434.159L177.529 435.028L179.301 447.709L185.517 446.84L183.744 434.159Z" fill="#E89BBB"/>
<path d="M249.344 424.987L245.099 425.581L246.872 438.262L251.117 437.668L249.344 424.987Z" fill="#E89BBB"/>
<path d="M304.884 426.297C304.884 426.297 302.264 424.053 304.168 421.176L256.157 427.889L256.873 433.01L304.884 426.297Z" fill="#E0DBCC"/>
<path d="M256.255 428.588L302.296 422.351L256.309 428.98L256.255 428.588Z" fill="#D6D1C2"/>
<path d="M256.41 429.698L301.213 423.634L256.464 430.09L256.41 429.698Z" fill="#D6D1C2"/>
<path d="M256.565 430.809L301.368 424.745L256.62 431.201L256.565 430.809Z" fill="#D6D1C2"/>
<path d="M256.72 431.919L302.762 425.682L256.775 432.311L256.72 431.919Z" fill="#D6D1C2"/>
<path d="M183.463 471.604C183.463 471.604 189.325 484.368 185.962 489.478L230.74 483.218L228.241 465.343L183.463 471.604Z" fill="#FFF8E8"/>
<path d="M234.623 479.439L187.933 485.605L234.524 478.728L234.623 479.439Z" fill="#EDE8D7"/>
<path d="M234.119 475.834L188.684 481.824L234.02 475.123L234.119 475.834Z" fill="#EDE8D7"/>
<path d="M233.615 472.229L188.18 478.219L233.516 471.518L233.615 472.229Z" fill="#EDE8D7"/>
<path d="M233.111 468.624L186.421 474.79L233.012 467.913L233.111 468.624Z" fill="#EDE8D7"/>
<path d="M227.748 461.817L181.204 468.325C180.749 468.388 180.432 468.809 180.495 469.264L180.758 471.142C180.821 471.597 181.242 471.914 181.697 471.85L226.499 465.586C227.461 465.452 228.35 466.122 228.485 467.084L230.497 481.476C230.631 482.438 229.96 483.327 228.999 483.462L184.196 489.725C183.741 489.789 183.424 490.21 183.487 490.665L183.75 492.543C183.814 492.998 184.234 493.315 184.689 493.251L310.317 475.687L309.824 472.161L307.325 454.286L306.832 450.761L227.748 461.817Z" fill="#6C8279"/>
<path d="M307.038 450.732L230.647 461.412L232.317 461.179C233.804 460.971 235.179 462.007 235.387 463.495L238.119 483.036C238.327 484.522 237.29 485.896 235.803 486.105L310.523 475.658C312.01 475.45 313.048 474.076 312.84 472.589L310.108 453.048C309.899 451.561 308.525 450.524 307.038 450.732Z" fill="#576961"/>
<path d="M300.458 477.066L306.255 476.255L302.77 451.329L296.973 452.14L300.458 477.066Z" fill="#3D4A44"/>
<path d="M245.111 484.804L249.071 484.25L245.586 459.324L241.627 459.878L245.111 484.804Z" fill="#3D4A44"/>
<path d="M301.304 476.97L195.783 491.723C193.863 491.991 192.525 493.765 192.793 495.685L195.615 515.87C195.884 517.79 197.657 519.129 199.577 518.861L305.097 504.108C307.017 503.839 308.356 502.066 308.087 500.146L305.265 479.96C304.997 478.04 303.223 476.702 301.304 476.97Z" fill="#AABB6C"/>
<path d="M295.64 477.739L283.969 479.371L287.77 506.553L299.44 504.921L295.64 477.739Z" fill="#99A861"/>
<path d="M278.048 480.199L272.356 480.994L276.156 508.176L281.848 507.381L278.048 480.199Z" fill="#99A861"/>
<path d="M204.76 490.445L199.069 491.241L202.869 518.423L208.561 517.627L204.76 490.445Z" fill="#99A861"/>
</g>
<path d="M102.352 276.448C105.737 271.347 110.157 267.113 114.093 262.475C119.171 256.491 124.383 250.622 129.432 244.614C130.899 242.868 132.065 242.356 133.998 243.995C153.035 260.143 172.112 276.243 191.203 292.327C192.338 293.283 192.926 294.247 192.355 295.699C190.983 299.551 187.786 302.055 185.253 304.996C178.987 312.274 172.778 319.605 166.373 326.763C165.58 327.649 164.922 328.714 163.57 328.852C162.248 328.518 161.601 327.263 160.505 326.618C142.73 311.797 125.186 296.702 107.409 281.883C105.522 280.31 103.332 278.912 102.352 276.448Z" fill="#99A861"/>
<path d="M102.352 276.448C110.348 283.14 118.371 289.802 126.335 296.533C137.96 306.359 149.542 316.235 161.143 326.089C161.896 327.292 161.14 328.205 160.46 329.021C158.573 331.284 156.959 333.792 154.852 335.847C151.599 339.021 148.841 342.439 147.925 347.031C141.742 342.632 136.192 337.478 130.449 332.544C126.005 328.726 121.354 325.148 116.944 321.271C111.071 316.107 105.017 311.149 99.0321 306.114C96.4561 303.947 93.7991 301.875 91.2821 299.643C87.1461 295.976 86.8871 293.395 90.6871 289.436C94.2131 285.763 97.2261 281.681 100.604 277.901C101.103 277.342 101.765 276.929 102.352 276.448Z" fill="#6C8279"/>
<path d="M163.568 328.507C172.463 318.24 181.353 307.97 190.261 297.714C190.894 296.986 191.653 296.368 192.354 295.699C194.559 297.596 196.765 299.493 198.97 301.39C199.715 303.109 198.311 304.006 197.456 304.991C188.876 314.881 180.287 324.765 171.718 334.665C170.168 335.98 169.203 337.902 167.353 338.91C166.811 339.064 166.229 339.092 165.765 338.799C164.08 337.736 162.851 338.043 161.573 339.624C160.328 341.165 159.593 342.451 161.261 344.119C161.726 344.583 161.771 345.306 161.53 345.98C161.081 347.004 160.324 347.787 159.526 348.526C156.945 350.917 154.592 350.941 152.046 348.628C149.47 346.287 149.136 343.847 151.263 341.186C154.451 337.197 157.94 333.463 161.325 329.641C161.916 328.977 162.602 328.45 163.568 328.507Z" fill="#F7F7E0"/>
<path d="M171.034 334.173C178.776 325.182 186.528 316.198 194.253 307.192C195.876 305.3 197.402 303.326 198.972 301.389C199.858 301.041 200.873 300.316 201.557 301.494C202.16 302.533 201.264 303.304 200.626 304.036C191.429 314.588 182.231 325.139 173.032 335.69C171.693 336.07 171.163 335.386 171.034 334.173Z" fill="#99A861"/>
<path d="M163.568 328.507C159.733 332.95 155.884 337.382 152.067 341.841C149.866 344.413 150.091 345.588 152.834 348.085C155.011 350.067 156.957 350.306 158.916 347.847C159.659 346.915 160.527 346.082 161.337 345.204C162.618 345.031 163.473 345.369 163.347 346.882C162.442 347.966 161.607 349.12 160.618 350.121C157.538 353.24 154.782 353.311 151.485 350.396C150.262 349.315 149.109 348.155 147.923 347.031C146.637 342.984 149.305 340.425 151.612 337.922C155.06 334.182 158.41 330.392 161.141 326.088C162.265 326.58 163.039 327.421 163.568 328.507Z" fill="#99A861"/>
<path d="M163.348 346.882C162.914 346.04 162.156 345.586 161.338 345.205C160.881 344.748 160.494 344.168 159.953 343.858C158.108 342.8 158.141 341.682 159.675 340.387C159.921 340.179 160.161 339.929 160.312 339.649C162.091 336.352 164.302 335.892 167.016 338.597C168.141 338.742 169.159 339.019 169.269 340.42C172.25 342.174 171.553 344.899 171.154 347.548C170.946 348.928 170.757 350.311 170.498 352.116C167.935 350.24 165.641 348.561 163.348 346.882Z" fill="#FD0A0A"/>
<path d="M169.268 340.42C168.517 339.812 167.766 339.205 167.016 338.597C168.356 337.122 169.696 335.648 171.035 334.173C171.701 334.679 172.367 335.184 173.033 335.69C171.777 337.267 170.522 338.844 169.268 340.42Z" fill="#99A861"/>
<path d="M518.162 331.188C516.27 330.018 514.187 330.434 512.666 331.456C509.312 333.71 506.065 336.18 503.348 339.237C505.169 339.444 506.992 339.67 508.768 338.971C509.63 341.251 511.142 342.911 513.479 343.785C516.737 341.197 519.996 338.608 523.254 336.02C521.707 334.251 520.759 331.852 518.162 331.188Z" fill="#33479D"/>
<path d="M469.812 370.92C468.2 370.012 466.576 370.442 464.952 370.874C461.509 373.005 458.368 375.506 455.63 378.499C457.556 377.626 459.463 377.995 461.367 378.584C463.288 379.635 464.315 381.561 465.764 383.073C468.8 380.56 471.836 378.047 474.874 375.533C473.473 373.682 472.23 371.656 469.812 370.92Z" fill="#33479D"/>
<path d="M505.631 341.602C503.947 340.912 502.258 340.914 500.566 341.573C497.505 343.413 494.749 345.63 492.329 348.261C494.466 347.37 496.562 347.507 498.624 348.513C500.157 349.721 501.452 351.15 502.537 352.771C505.21 350.573 507.882 348.374 510.555 346.176C509.121 344.429 507.898 342.455 505.631 341.602Z" fill="#33479D"/>
<path d="M523.254 336.021C534.206 349.308 545.151 362.602 556.122 375.873C557.233 377.218 557.027 378.174 555.724 379.241C537.042 394.546 518.379 409.876 499.712 425.2C498.838 424.853 498.316 424.115 497.751 423.427C487.604 411.073 477.44 398.733 467.297 386.376C466.501 385.406 465.584 384.486 465.507 383.114C465.616 382.242 466.143 381.608 466.773 381.082C469.339 378.944 471.81 376.689 474.574 374.799C479.59 370.251 484.947 366.112 490.166 361.809C494.122 358.547 497.958 355.134 502.131 352.141C504.654 349.815 507.261 347.59 510.077 345.622C510.964 344.707 511.92 343.876 513.015 343.217C515.376 340.89 518.036 338.92 520.604 336.84C521.368 336.221 522.228 335.832 523.254 336.021Z" fill="#656FCB"/>
<path d="M502.537 352.772C463.687 383.919 481.553 374.703 465.232 370.256C474.96 362.494 483.439 354.258 494.092 347.22C497.435 346.243 502.626 349.273 502.537 352.772Z" fill="#CCD7F3"/>
<path d="M465.765 383.074C476.572 396.23 487.381 409.386 498.186 422.544C498.841 423.342 499.634 424.067 499.712 425.199C499.287 425.562 498.862 425.925 498.437 426.287C497.275 426.565 496.544 425.948 495.934 425.081C484.543 411.25 473.167 397.405 461.792 383.56C460.88 382.449 460.027 381.311 458.365 381.485C457.661 381.694 456.915 381.773 456.248 382.13C453.942 383.365 453.394 385.997 455.012 388.02C455.564 388.71 456.238 389.322 456.532 390.191C456.524 391.533 457.742 391.771 458.534 392.395C459.339 393.197 460.044 394.076 460.668 395.022C461.247 395.787 460.497 397.324 462.112 397.496C470.104 406.908 477.808 416.548 485.697 426.029C486.567 426.792 487.168 427.799 487.97 428.625C488.5 429.17 488.928 429.953 489.902 429.774C490.123 429.781 490.329 429.84 490.522 429.947C490.999 431.001 490.433 431.973 490.28 432.978C489.25 434.085 488.437 434.033 487.421 432.791C475.622 418.378 463.751 404.024 451.963 389.602C448.934 385.896 450.654 380.929 455.628 378.497C457.695 376.503 459.882 377.499 462.064 378.235C463.855 379.424 465.51 380.716 465.765 383.074Z" fill="#877EF0"/>
<path d="M503.348 339.237C507.138 337.412 510.78 339.733 513.479 343.786C511.81 345.568 510.756 345.806 510.077 345.621C508.877 345.293 508.843 343.64 507.411 342.504C506.047 341.423 504.193 341.426 502.67 341.668C501.896 341.673 501.021 341.602 500.906 341.228C500.746 340.7 502.176 339.802 503.348 339.237Z" fill="#CCD7F3"/>
<path d="M496.654 424.998C497.249 425.428 497.843 425.858 498.438 426.288C495.72 428.519 493.002 430.749 490.283 432.98C489.685 431.993 489.271 431.018 490.462 430.143C490.248 429.587 490.533 429.184 490.87 428.796C491.208 428.449 491.547 428.1 491.955 427.831C492.309 427.522 492.654 427.2 493.046 426.937C493.391 426.621 493.748 426.319 494.13 426.047C494.403 425.817 494.653 425.56 494.965 425.38C495.473 425.007 496.006 424.743 496.654 424.998Z" fill="#33479D"/>
<path d="M496.086 373.162C499.825 370.085 503.553 366.992 507.311 363.939C509.395 362.246 510.528 362.341 512.211 364.375C517.245 370.46 522.267 376.554 527.256 382.677C529.325 385.215 529.193 386.313 526.61 388.449C519.719 394.146 512.807 399.817 505.891 405.482C505.203 406.045 504.428 406.505 503.692 407.01C502.498 407.828 501.444 407.622 500.551 406.536C495.011 399.806 489.471 393.075 483.945 386.334C482.685 384.795 483.388 383.599 484.691 382.53C488.493 379.412 492.289 376.286 496.086 373.162Z" fill="#CCD7F3"/>
<path d="M527.936 367.238C525.096 363.783 522.266 360.32 519.408 356.88C518.565 355.865 517.986 354.747 519.164 353.762C520.286 352.823 521.341 353.373 522.219 354.447C527.884 361.369 533.568 368.276 539.263 375.174C540.128 376.222 540.567 377.218 539.287 378.232C537.955 379.289 537.118 378.41 536.313 377.429C533.524 374.03 530.728 370.635 527.936 367.238Z" fill="#CCD7F3"/>
<path d="M461.252 386.821C463.498 388.031 464.571 390.329 466.149 392.153C466.776 392.877 465.971 393.35 465.499 393.768C464.114 394.995 462.701 396.192 461.3 397.401C459.236 397.734 460.968 396.014 460.316 395.583C460.07 394.028 459.45 392.777 457.734 392.423C457.422 391.732 454.834 393.061 456.292 390.798C456.408 390.328 456.492 389.843 456.887 389.502C457.219 389.16 457.56 388.826 457.959 388.559C458.31 388.248 458.659 387.934 459.049 387.669C459.404 387.35 459.774 387.056 460.209 386.852C460.552 386.708 460.9 386.659 461.252 386.821Z" fill="#FD4D0A"/>
<path d="M457.735 392.424C460.579 392.632 460.579 392.632 460.318 395.583C459.456 394.53 458.596 393.478 457.735 392.424Z" fill="#E4EAE6"/>
<path d="M496.655 424.998C484.942 410.728 473.231 396.455 461.509 382.193C460.497 380.962 459.251 380.266 457.596 380.916C453.205 381.917 451.949 385.462 454.763 388.912C455.274 389.539 455.783 390.169 456.294 390.798C456.661 390.489 457.029 390.181 457.398 389.873C457.745 389.592 458.091 389.313 458.439 389.033C458.783 388.744 459.127 388.454 459.47 388.165C459.82 387.882 460.169 387.6 460.518 387.317C460.643 387.233 460.768 387.149 460.893 387.065C461.729 388.163 462.719 389.124 463.577 390.201C465.424 392.514 465.4 392.512 463.258 394.467C462.385 395.263 461.007 395.798 461.302 397.402C461.88 398.084 462.465 398.759 463.034 399.447C470.573 408.579 478.11 417.713 485.647 426.846C486.482 427.891 487.351 428.912 488.14 429.991C488.864 430.982 489.538 430.927 490.278 430.055L490.463 430.142C490.789 429.82 491.114 429.498 491.439 429.176C491.788 428.878 492.138 428.58 492.487 428.281C492.829 428.01 493.17 427.738 493.512 427.466C493.863 427.17 494.214 426.874 494.565 426.578C494.787 426.382 495.011 426.188 495.234 425.992C495.707 425.661 496.181 425.33 496.655 424.998Z" fill="#F7F7E0"/>
<path d="M368.213 109.253C368.795 107.41 369.821 105.977 371.572 104.995C383.718 98.1826 395.852 91.3476 407.947 84.4456C409.201 83.7296 409.881 83.8376 410.488 85.0536C411.59 85.8696 412.292 86.9966 412.951 88.1676C422.49 105.129 432.03 122.089 441.639 139.01C442.291 140.158 443.155 141.262 442.975 142.725C442.605 143.931 441.515 144.363 440.561 144.909C429.571 151.194 418.513 157.359 407.481 163.571C404.932 165.006 402.57 166.421 402.148 169.648C402.109 169.943 401.853 170.155 401.589 170.312C400.169 170.072 399.869 168.773 399.302 167.789C392.924 156.708 386.749 145.512 380.394 134.418C376.883 128.289 373.42 122.134 369.98 115.965C369.259 114.673 368.487 113.386 368.141 111.915C367.774 111.018 367.768 110.129 368.213 109.253Z" fill="#F6F7E0"/>
<path d="M358.578 112.485C359.59 111.663 360.716 111.047 361.944 110.613C362.491 110.792 362.737 111.251 362.989 111.714C369.192 123.107 375.716 134.32 382.048 145.64C386.015 152.731 390.149 159.727 394.018 166.872C394.596 167.939 395.147 168.997 394.625 170.256C394.156 171.177 393.284 171.627 392.442 172.105C381.547 178.286 370.612 184.397 359.688 190.527C358.564 191.158 357.455 192.16 355.97 191.403C354.24 189.786 353.412 187.576 352.286 185.585C343.192 169.5 334.082 153.424 325.04 137.31C324.422 136.208 323.722 135.132 323.773 133.788C323.612 133.105 322.769 132.504 324.023 131.811C333.763 126.434 343.459 120.978 353.169 115.546C353.917 115.678 354.26 116.271 354.589 116.845C356.723 120.566 358.851 124.291 360.958 128.029C361.358 128.739 361.712 129.481 361.547 130.344C361.115 131.408 360.102 131.8 359.209 132.314C352.558 136.14 345.845 139.859 339.212 143.718C345.743 140.16 352.201 136.47 358.675 132.811C359.758 132.199 360.772 131.345 362.14 131.388C363.425 132.08 363.967 133.178 363.902 134.607C362.651 136.619 360.444 137.349 358.536 138.391C352.862 141.489 347.332 144.84 341.666 147.949C347.6 144.726 353.503 141.449 359.369 138.101C361.025 137.156 362.587 135.962 364.54 135.601C365.861 136.257 366.392 137.363 366.359 138.789C365.798 140.157 364.484 140.661 363.34 141.314C357.254 144.787 351.158 148.244 345.023 151.631C344.766 151.773 344.493 151.897 344.253 152.289C350.742 148.664 357.061 144.996 363.465 141.483C364.618 140.85 365.669 139.893 367.148 140.084C368.307 140.853 368.904 141.916 368.846 143.322C367.987 144.747 366.451 145.282 365.114 146.024C359.463 149.158 353.898 152.446 348.195 155.487C347.692 155.755 347.156 155.991 346.496 156.719C353.354 152.887 359.801 149.085 366.393 145.543C367.36 145.023 368.253 144.277 369.458 144.335C370.745 145.016 371.298 146.097 371.2 147.531C370.52 148.907 369.132 149.401 367.922 150.091C361.606 153.692 355.253 157.231 348.971 160.892C355.773 157.227 362.448 153.335 369.188 149.561C370.023 149.094 370.792 148.441 371.853 148.566C373.053 149.288 373.766 150.291 373.686 151.748C373.332 152.75 372.438 153.181 371.606 153.661C364.851 157.563 357.974 161.25 351.264 165.231C357.473 161.954 363.531 158.404 369.661 154.983C371.129 154.164 372.456 152.964 374.294 152.974C375.321 153.809 376.667 154.289 377.267 155.61C376.952 156.454 376.193 156.805 375.481 157.202C368.342 161.187 361.205 165.177 354.136 169.288C362.727 164.563 371.213 159.648 379.864 155.029C380.518 154.788 381.183 154.869 381.846 154.975C378.924 150.214 376.274 145.298 373.537 140.434C368.871 132.144 364.183 123.868 359.505 115.586C358.971 114.64 358.21 113.719 358.578 112.485Z" fill="#F6F7E0"/>
<path d="M323.775 133.786C330.776 146.128 337.781 158.468 344.776 170.813C348.586 177.538 352.378 184.273 356.178 191.003C357.216 192.458 358.389 191.765 359.508 191.17C363.323 189.142 367.048 186.951 370.812 184.831C377.821 180.884 384.819 176.917 391.821 172.958C394.066 171.688 396.321 171.17 398.881 171.853C401.063 172.435 403.713 170.868 404.247 168.654C404.798 166.366 406.127 164.897 408.124 163.764C418.812 157.698 429.548 151.717 440.213 145.61C441.398 144.931 442.927 144.476 442.745 142.613C434.105 127.259 425.458 111.91 416.829 96.5497C414.685 92.7337 412.6 88.8857 410.487 85.0527C412.348 83.6807 413.474 84.1687 414.604 86.1927C425.028 104.856 435.545 123.467 446.027 142.098C447.382 144.506 447.304 144.795 444.802 146.205C433.776 152.419 422.754 158.641 411.69 164.787C410.032 165.708 409.076 166.582 409.45 168.724C409.804 170.751 408.9 172.513 406.989 173.592C405.044 174.691 403.145 175.876 401.16 176.897C399.316 177.845 396.428 177.393 395.195 175.794C394.348 174.696 393.753 174.916 392.81 175.454C386.147 179.254 379.471 183.033 372.787 186.796C367.92 189.536 362.986 192.16 358.179 195.002C356.208 196.167 355.236 195.784 354.169 193.845C350.184 186.602 346.051 179.439 341.982 172.242C335.606 160.962 329.287 149.65 322.82 138.423C321.625 136.346 321.572 134.949 323.775 133.786Z" fill="#656FCB"/>
<path d="M394.224 170.129C394.433 169.193 394.093 168.434 393.635 167.61C388.404 158.207 382.937 148.938 377.801 139.479C373.302 131.193 368.441 123.104 363.744 114.925C362.963 113.565 362.306 112.148 361.944 110.611C363.329 109.607 364.814 109.988 366.294 110.299C367.503 109.77 367.865 110.917 368.544 111.436C371.303 116.938 374.456 122.221 377.457 127.588C380.712 133.408 384.044 139.189 387.266 145.03C391.518 152.739 395.918 160.367 400.261 168.027C400.698 168.798 401.181 169.544 401.642 170.301C401.924 171.123 401.208 170.956 400.966 170.83C398.966 169.791 396.911 169.855 394.807 170.38C394.604 170.43 394.391 170.277 394.224 170.129Z" fill="#E0E3CD"/>
<path d="M368.543 111.437C367.515 111.608 367.104 110.558 366.293 110.3C366.701 109.527 367.556 109.574 368.212 109.254C368.323 109.981 368.433 110.709 368.543 111.437Z" fill="#656FCB"/>
<path d="M394.224 170.128C396.692 168.881 399.095 168.734 401.391 170.537C401.425 170.563 401.536 170.542 401.57 170.505C401.615 170.457 401.619 170.37 401.642 170.3C401.475 167.182 402.957 165.242 405.674 163.736C417.536 157.162 429.318 150.442 441.123 143.764C441.697 143.439 442.207 143 442.747 142.615C444.181 144.138 443.178 144.832 441.84 145.583C430.548 151.928 419.288 158.331 407.985 164.656C406.196 165.657 405.212 167.036 404.906 169.014C404.554 171.293 400.837 173.436 398.729 172.604C396.802 171.843 394.981 172.005 393.163 173.033C381.95 179.369 370.691 185.623 359.526 192.042C357.69 193.098 356.784 193.016 356.179 191.003C356.898 191.582 357.457 190.985 357.989 190.686C369.903 183.988 381.805 177.269 393.707 170.55C393.897 170.442 394.052 170.27 394.224 170.128Z" fill="#E0E3CD"/>
<path d="M355.213 122.462C355.708 123.213 356.542 123.973 354.993 124.829C348.152 128.609 341.341 132.444 334.536 136.287C333.668 136.777 333.113 136.831 332.547 135.843C331.953 134.805 332.466 134.328 333.246 133.886C339.983 130.072 346.72 126.259 353.466 122.461C353.969 122.178 354.528 121.836 355.213 122.462Z" fill="#E0E3CD"/>
<path d="M388.446 160.888C389.112 162.017 388.219 162.293 387.517 162.691C383.504 164.964 379.5 167.253 375.484 169.52C369.979 172.627 364.473 175.731 358.944 178.796C358.409 179.093 357.71 180.085 357.097 178.964C356.509 177.89 357.692 177.732 358.217 177.433C367.588 172.096 376.982 166.799 386.383 161.514C387 161.167 387.62 160.67 388.446 160.888Z" fill="#E0E3CD"/>
<path d="M354.766 173.761C357.235 172.322 359.526 170.944 361.857 169.637C369.371 165.423 376.899 161.234 384.426 157.043C384.949 156.752 385.503 155.946 386.101 156.864C386.699 157.782 385.768 158.024 385.256 158.315C376.857 163.08 368.445 167.821 360.035 172.565C358.677 173.331 357.318 174.098 355.946 174.839C355.573 175.04 355.128 175.324 354.764 174.819C354.465 174.405 354.489 173.988 354.766 173.761Z" fill="#E0E3CD"/>
<path d="M390.943 165.259C391.646 166.498 390.554 166.69 389.923 167.05C386.172 169.189 382.401 171.293 378.636 173.407C372.987 176.578 367.341 179.755 361.682 182.908C361.09 183.238 360.305 184.121 359.766 183.245C359.133 182.217 360.347 181.906 360.987 181.544C370.384 176.227 379.79 170.928 389.216 165.663C389.704 165.391 390.228 164.632 390.943 165.259Z" fill="#E0E3CD"/>
<path d="M377.208 155.354C378.154 155.112 379.075 155.291 379.992 155.524C371.385 160.402 362.784 165.286 354.167 170.144C353.639 170.442 352.884 171.121 352.417 170.302C351.877 169.356 352.897 169.093 353.505 168.75C361.403 164.281 369.306 159.818 377.208 155.354Z" fill="#E0E3CD"/>
<path d="M373.371 151.756C373.681 152.258 373.991 152.76 374.301 153.262C367.22 157.211 360.14 161.161 353.058 165.107C352.473 165.433 351.878 165.742 351.284 166.051C350.795 166.306 350.292 166.932 349.789 166.103C349.302 165.302 349.996 165.075 350.499 164.789C353.539 163.064 356.589 161.355 359.625 159.623C364.212 157.008 368.79 154.379 373.371 151.756Z" fill="#E0E3CD"/>
<path d="M361.307 130.36C361.558 130.795 361.809 131.229 362.06 131.664C354.502 135.958 346.944 140.249 339.389 144.547C338.833 144.863 338.27 145.553 337.729 144.62C337.209 143.723 338.02 143.489 338.591 143.167C346.163 138.899 353.735 134.629 361.307 130.36Z" fill="#E0E3CD"/>
<path d="M368.599 143.285C368.86 143.716 369.121 144.148 369.382 144.579C361.868 148.82 354.354 153.061 346.84 157.301C346.265 157.626 345.578 158.183 345.093 157.39C344.551 156.503 345.52 156.28 346.043 155.984C353.556 151.74 361.079 147.515 368.599 143.285Z" fill="#E0E3CD"/>
<path d="M363.682 134.583C363.924 135.021 364.167 135.459 364.409 135.897C358.361 139.372 352.315 142.852 346.261 146.316C344.78 147.164 343.275 147.971 341.769 148.774C341.239 149.057 340.651 149.839 340.099 148.884C339.559 147.95 340.525 147.726 341.021 147.442C345.596 144.82 350.199 142.248 354.788 139.651C357.758 137.971 360.718 136.273 363.682 134.583Z" fill="#E0E3CD"/>
<path d="M366.062 138.814C366.371 139.323 366.68 139.832 366.989 140.34C359.543 144.505 352.098 148.674 344.647 152.83C344.05 153.163 343.294 153.995 342.746 153.095C342.202 152.201 343.248 151.88 343.851 151.536C350.941 147.492 358.04 143.463 365.135 139.426C365.457 139.244 365.754 139.019 366.062 138.814Z" fill="#E0E3CD"/>
<path d="M370.99 147.526C371.241 147.955 371.491 148.383 371.742 148.812C364.13 153.153 356.518 157.492 348.907 161.835C348.404 162.122 347.859 162.668 347.425 161.836C346.852 160.738 347.99 160.574 348.509 160.277C354.824 156.66 361.173 153.101 367.512 149.523C368.676 148.865 369.831 148.192 370.99 147.526Z" fill="#E0E3CD"/>
<path d="M335.317 139.401C336.142 138.902 336.954 138.38 337.793 137.907C343.872 134.484 349.947 131.054 356.057 127.685C356.563 127.406 357.298 126.326 357.881 127.421C358.327 128.26 357.42 128.688 356.772 129.052C350.106 132.796 343.444 136.547 336.76 140.259C336.332 140.497 335.834 141.244 335.229 140.519C334.937 140.171 334.777 139.725 335.317 139.401Z" fill="#E0E3CD"/>
<path d="M358.578 112.485C366.64 126.745 374.701 141.006 382.786 155.308C382.252 155.573 380.591 156.311 378.457 155.917C376.152 155.491 374.813 154.024 374.443 153.589C371.904 149.634 369.368 145.512 366.853 141.221C361.674 132.386 357.142 123.787 353.171 115.546C354.861 114.327 356.681 113.338 358.578 112.485Z" fill="#FD4D0A"/>
<defs>
<linearGradient id="paint0_linear_84_166" x1="313.5" y1="415" x2="313.5" y2="757" gradientUnits="userSpaceOnUse">
<stop stop-color="#947CFF"/>
<stop offset="1" stop-color="#542EFF"/>
</linearGradient>
</defs>
</svg>
