<svg width="1312" height="520" viewBox="0 0 1312 520" fill="none" xmlns="http://www.w3.org/2000/svg">
<rect width="1312" height="520" rx="20" fill="#542EFF"/>
<mask id="mask0_85_3231" style="mask-type:alpha" maskUnits="userSpaceOnUse" x="0" y="0" width="1312" height="520">
<rect width="1312" height="520" fill="#542EFF"/>
<rect x="0.5" y="0.5" width="1311" height="519" stroke="white" stroke-opacity="0.05"/>
<rect x="0.5" y="0.5" width="1311" height="519" stroke="white" stroke-opacity="0.3"/>
<rect x="0.5" y="0.5" width="1311" height="519" stroke="white" stroke-opacity="0.3"/>
</mask>
<g mask="url(#mask0_85_3231)">
<path d="M-77.6063 497.741L28.5555 438.414C51.81 425.419 66.9091 401.322 68.6435 374.739V374.739C71.1742 335.954 44.7725 300.907 6.71676 293.004L0.326836 291.677C-32.0588 284.953 -64.7263 301.84 -77.967 332.15V332.15C-93.6066 367.953 -76.8756 409.624 -40.8202 424.672L26.5479 452.786C60.4552 466.937 99.5598 459.056 125.339 432.876L182.584 374.741C200.244 356.806 206.874 330.749 199.933 306.555V306.555C189.308 269.521 210.718 230.885 247.753 220.26L284.37 209.755C289.578 208.261 294.64 206.3 299.495 203.896L370.918 168.522C402.109 153.074 421.596 121.026 420.959 86.2243L420.093 38.9391C419.739 19.5748 409.088 1.86821 392.147 -7.51915L372.706 -18.2925C349.818 -30.9755 346.122 -62.3732 365.438 -80.0245V-80.0245C378.797 -92.2318 398.88 -93.4146 413.58 -82.8598L459.365 -49.9847C465.67 -45.4577 465.659 -36.0751 459.344 -31.563V-31.563C448.06 -23.5017 434.951 -38.8816 444.698 -48.7452L481.265 -85.7486C483.817 -88.3315 485.401 -91.7153 485.75 -95.3298L499.609 -239" stroke="white" stroke-opacity="0.05" stroke-width="30"/>
<path d="M-77.6063 497.741L28.5555 438.414C51.81 425.419 66.9091 401.322 68.6435 374.739V374.739C71.1742 335.954 44.7725 300.907 6.71676 293.004L0.326836 291.677C-32.0588 284.953 -64.7263 301.84 -77.967 332.15V332.15C-93.6066 367.953 -76.8756 409.624 -40.8202 424.672L26.5479 452.786C60.4552 466.937 99.5598 459.056 125.339 432.876L182.584 374.741C200.244 356.806 206.874 330.749 199.933 306.555V306.555C189.308 269.521 210.718 230.885 247.753 220.26L284.37 209.755C289.578 208.261 294.64 206.3 299.495 203.896L370.918 168.522C402.109 153.074 421.596 121.026 420.959 86.2243L420.093 38.9391C419.739 19.5748 409.088 1.86821 392.147 -7.51915L372.706 -18.2925C349.818 -30.9755 346.122 -62.3732 365.438 -80.0245V-80.0245C378.797 -92.2318 398.88 -93.4146 413.58 -82.8598L459.365 -49.9847C465.67 -45.4577 465.659 -36.0751 459.344 -31.563V-31.563C448.06 -23.5017 434.951 -38.8816 444.698 -48.7452L481.265 -85.7486C483.817 -88.3315 485.401 -91.7153 485.75 -95.3298L499.609 -239" stroke="white" stroke-opacity="0.05" stroke-width="30"/>
<path d="M906.938 -102.54L865.686 11.8638C856.65 36.9238 835.333 55.7444 809.387 61.7835V61.7835C771.532 70.5948 732.653 50.2513 718.661 13.9898L716.312 7.90115C704.404 -22.9575 715.747 -57.9385 743.498 -75.9373V-75.9373C776.276 -97.197 820.116 -87.4736 840.832 -54.349L879.54 7.54304C899.022 38.6942 897.612 78.5602 875.979 108.258L827.939 174.204C813.119 194.548 788.489 205.332 763.488 202.422V202.422C725.218 197.969 690.583 225.383 686.129 263.653L681.726 301.492C681.1 306.873 679.989 312.187 678.407 317.369L655.133 393.598C644.97 426.888 616.521 451.333 582.08 456.37L535.285 463.214C516.121 466.017 496.917 458.391 484.897 443.205L471.102 425.776C454.862 405.259 423.282 406.724 409.011 428.656V428.656C399.141 443.825 401.244 463.832 414.051 476.617L453.941 516.44C459.434 521.923 468.69 520.385 472.114 513.419V513.419C478.231 500.974 460.922 490.544 452.777 501.767L422.22 543.869C420.087 546.808 417.006 548.922 413.497 549.854L274 586.919" stroke="white" stroke-opacity="0.05" stroke-width="20"/>
<path d="M906.938 -102.54L865.686 11.8638C856.65 36.9238 835.333 55.7444 809.387 61.7835V61.7835C771.532 70.5948 732.653 50.2513 718.661 13.9898L716.312 7.90115C704.404 -22.9575 715.747 -57.9385 743.498 -75.9373V-75.9373C776.276 -97.197 820.116 -87.4736 840.832 -54.349L879.54 7.54304C899.022 38.6942 897.612 78.5602 875.979 108.258L827.939 174.204C813.119 194.548 788.489 205.332 763.488 202.422V202.422C725.218 197.969 690.583 225.383 686.129 263.653L681.726 301.492C681.1 306.873 679.989 312.187 678.407 317.369L655.133 393.598C644.97 426.888 616.521 451.333 582.08 456.37L535.285 463.214C516.121 466.017 496.917 458.391 484.897 443.205L471.102 425.776C454.862 405.259 423.282 406.724 409.011 428.656V428.656C399.141 443.825 401.244 463.832 414.051 476.617L453.941 516.44C459.434 521.923 468.69 520.385 472.114 513.419V513.419C478.231 500.974 460.922 490.544 452.777 501.767L422.22 543.869C420.087 546.808 417.006 548.922 413.497 549.854L274 586.919" stroke="white" stroke-opacity="0.05" stroke-width="20"/>
<path d="M1148.88 277.896L1209.23 172.314C1222.45 149.187 1222.96 120.755 1210.74 97.086V97.086C1192.9 62.5525 1152.2 46.1434 1115.53 59.0012L1109.37 61.1601C1078.15 72.1022 1058.88 103.419 1063.16 136.216V136.216C1068.23 174.955 1104.06 202.027 1142.71 196.322L1214.93 185.663C1251.27 180.298 1280.71 153.377 1289.29 117.652L1308.35 38.3205C1314.23 13.8471 1306.47 -11.896 1288.05 -29.0438V-29.0438C1259.85 -55.2926 1258.26 -99.4352 1284.51 -127.639L1310.46 -155.525C1314.15 -159.491 1317.48 -163.782 1320.4 -168.346L1363.34 -235.489C1382.1 -264.811 1382.26 -302.319 1363.77 -331.806L1338.64 -371.87C1328.35 -388.277 1310.09 -397.953 1290.74 -397.258L1268.52 -396.461C1242.37 -395.522 1223.01 -420.515 1230.46 -445.6V-445.6C1235.61 -462.949 1252.2 -474.32 1270.24 -472.859L1326.42 -468.309C1334.16 -467.682 1338.99 -459.638 1335.9 -452.515V-452.515C1330.39 -439.789 1311.23 -446.204 1314.49 -459.682L1326.74 -510.244C1327.59 -513.773 1327.2 -517.489 1325.64 -520.765L1263.41 -651" stroke="white" stroke-opacity="0.05" stroke-width="40"/>
<path d="M1148.88 277.896L1209.23 172.314C1222.45 149.187 1222.96 120.755 1210.74 97.086V97.086C1192.9 62.5525 1152.2 46.1434 1115.53 59.0012L1109.37 61.1601C1078.15 72.1022 1058.88 103.419 1063.16 136.216V136.216C1068.23 174.955 1104.06 202.027 1142.71 196.322L1214.93 185.663C1251.27 180.298 1280.71 153.377 1289.29 117.652L1308.35 38.3205C1314.23 13.8471 1306.47 -11.896 1288.05 -29.0438V-29.0438C1259.85 -55.2926 1258.26 -99.4352 1284.51 -127.639L1310.46 -155.525C1314.15 -159.491 1317.48 -163.782 1320.4 -168.346L1363.34 -235.489C1382.1 -264.811 1382.26 -302.319 1363.77 -331.806L1338.64 -371.87C1328.35 -388.277 1310.09 -397.953 1290.74 -397.258L1268.52 -396.461C1242.37 -395.522 1223.01 -420.515 1230.46 -445.6V-445.6C1235.61 -462.949 1252.2 -474.32 1270.24 -472.859L1326.42 -468.309C1334.16 -467.682 1338.99 -459.638 1335.9 -452.515V-452.515C1330.39 -439.789 1311.23 -446.204 1314.49 -459.682L1326.74 -510.244C1327.59 -513.773 1327.2 -517.489 1325.64 -520.765L1263.41 -651" stroke="white" stroke-opacity="0.05" stroke-width="40"/>
<path d="M1553.85 397.099L1432.24 396.226C1405.6 396.035 1380.57 409.525 1365.92 431.78V431.78C1344.56 464.25 1350.2 507.765 1379.38 533.438L1384.28 537.749C1409.11 559.597 1445.86 561.055 1472.35 541.244V541.244C1503.63 517.844 1509.68 473.348 1485.76 442.451L1441.08 384.723C1418.6 355.667 1380.7 343.198 1345.36 353.223L1266.86 375.483C1242.65 382.35 1224.01 401.728 1218.09 426.192V426.192C1209.03 463.641 1171.33 486.653 1133.88 477.592L1096.85 468.634C1091.59 467.36 1086.22 466.564 1080.81 466.255L1001.23 461.721C966.484 459.741 933.707 477.977 917.066 508.548L894.456 550.086C885.197 567.097 885.709 587.754 895.799 604.286L907.379 623.258C921.012 645.593 908.712 674.717 883.197 680.519V680.519C865.551 684.532 847.506 675.638 839.941 659.198L816.377 607.995C813.132 600.944 817.778 592.792 825.498 591.989V591.989C839.29 590.556 843.089 610.404 829.741 614.164L779.667 628.269C776.172 629.253 773.123 631.412 771.034 634.383L688 752.444" stroke="white" stroke-opacity="0.05" stroke-width="50"/>
<path d="M1553.85 397.099L1432.24 396.226C1405.6 396.035 1380.57 409.525 1365.92 431.78V431.78C1344.56 464.25 1350.2 507.765 1379.38 533.438L1384.28 537.749C1409.11 559.597 1445.86 561.055 1472.35 541.244V541.244C1503.63 517.844 1509.68 473.348 1485.76 442.451L1441.08 384.723C1418.6 355.667 1380.7 343.198 1345.36 353.223L1266.86 375.483C1242.65 382.35 1224.01 401.728 1218.09 426.192V426.192C1209.03 463.641 1171.33 486.653 1133.88 477.592L1096.85 468.634C1091.59 467.36 1086.22 466.564 1080.81 466.255L1001.23 461.721C966.484 459.741 933.707 477.977 917.066 508.548L894.456 550.086C885.197 567.097 885.709 587.754 895.799 604.286L907.379 623.258C921.012 645.593 908.712 674.717 883.197 680.519V680.519C865.551 684.532 847.506 675.638 839.941 659.198L816.377 607.995C813.132 600.944 817.778 592.792 825.498 591.989V591.989C839.29 590.556 843.089 610.404 829.741 614.164L779.667 628.269C776.172 629.253 773.123 631.412 771.034 634.383L688 752.444" stroke="white" stroke-opacity="0.05" stroke-width="50"/>
</g>
</svg>
