<svg width="1440" height="780" viewBox="0 0 1440 780" fill="none" xmlns="http://www.w3.org/2000/svg">
<rect width="1440" height="780" fill="#542EFF"/>
<mask id="mask0_85_2456" style="mask-type:alpha" maskUnits="userSpaceOnUse" x="0" y="0" width="1440" height="780">
<rect width="1440" height="780" fill="#542EFF"/>
</mask>
<g mask="url(#mask0_85_2456)">
<path d="M-12 815L463.885 563.461C516.512 535.644 579.488 535.644 632.115 563.461L718.757 609.257C784.577 644.048 865.024 634.728 921.146 585.808L1103.55 426.817C1162.27 375.633 1247.25 368.028 1314.12 407.974L1500 519" stroke="white" stroke-opacity="0.05" stroke-width="50"/>
<path d="M1320.13 787.41C1268.13 820.975 1200.91 819.473 1150.46 783.607C1065.91 723.496 1065.6 598.035 1149.84 537.489C1200.56 501.035 1268.48 499.497 1320.79 533.628C1412.53 593.49 1412.18 728.007 1320.13 787.41Z" stroke="white" stroke-opacity="0.05" stroke-width="50"/>
<path d="M378.133 217.41C326.126 250.975 258.906 249.473 208.458 213.607C123.907 153.496 123.603 28.0354 207.842 -32.5114C258.56 -68.9651 326.479 -70.5032 378.788 -36.3722C470.533 23.4896 470.176 158.007 378.133 217.41Z" stroke="white" stroke-opacity="0.05" stroke-width="50"/>
<path d="M523.716 674.504L320.315 783.367C301.972 793.184 308.947 821 329.752 821H705.042C725.073 821 732.666 794.822 715.743 784.104L543.854 675.241C537.765 671.384 530.071 671.103 523.716 674.504Z" stroke="white" stroke-opacity="0.05" stroke-width="50"/>
<path d="M1249.95 47.5783L1425.84 196.854C1441.71 210.316 1465.02 193.621 1457.39 174.267L1319.7 -174.851C1312.35 -193.485 1285.21 -190.943 1281.45 -171.268L1243.24 28.5737C1241.89 35.6536 1244.45 42.9142 1249.95 47.5783Z" stroke="white" stroke-opacity="0.05" stroke-width="50"/>
<path d="M121.496 527.716L12.6333 324.315C2.81588 305.972 -25 312.947 -25 333.752V709.042C-25 729.073 1.17849 736.666 11.8964 719.743L120.759 547.854C124.616 541.765 124.897 534.071 121.496 527.716Z" stroke="white" stroke-opacity="0.05" stroke-width="50"/>
<path d="M826.208 768.37L850.644 811.123C855.663 819.904 866.449 823.556 875.771 819.63L969.738 780.053C980.01 775.726 984.763 763.837 980.305 753.621L963.796 715.793C959.637 706.264 948.87 701.51 939.026 704.858L837.132 739.51C825.229 743.558 819.969 757.455 826.208 768.37Z" stroke="white" stroke-opacity="0.05" stroke-width="50"/>
<path d="M722.208 260.37L746.644 303.123C751.663 311.904 762.449 315.556 771.771 311.63L865.738 272.053C876.01 267.726 880.763 255.837 876.305 245.621L859.796 207.793C855.637 198.264 844.87 193.51 835.026 196.858L733.132 231.51C721.229 235.558 715.969 249.455 722.208 260.37Z" stroke="white" stroke-opacity="0.05" stroke-width="50"/>
<path d="M717.81 121.37L693.374 164.123C688.355 172.904 677.569 176.556 668.247 172.63L574.28 133.053C564.008 128.726 559.254 116.837 563.713 106.621L580.222 68.7933C584.381 59.2637 595.148 54.5103 604.992 57.858L706.886 92.5103C718.789 96.5582 724.049 110.455 717.81 121.37Z" stroke="white" stroke-opacity="0.05" stroke-width="50"/>
<path d="M923.208 121.37L947.644 164.123C952.663 172.904 963.449 176.556 972.771 172.63L1066.74 133.053C1077.01 128.726 1081.76 116.837 1077.3 106.621L1060.8 68.7933C1056.64 59.2637 1045.87 54.5103 1036.03 57.858L934.132 92.5103C922.229 96.5582 916.969 110.455 923.208 121.37Z" stroke="white" stroke-opacity="0.05" stroke-width="50"/>
<path d="M-36 183L296.62 449.869C303.4 455.31 312.919 455.747 320.169 450.951L548.511 299.922C556.379 294.718 566.812 295.719 573.547 302.323L755.557 480.799C762.689 487.792 773.886 488.452 781.789 482.345L1196.15 162.158C1203.17 156.73 1212.94 156.582 1220.12 161.796L1536 391" stroke="white" stroke-opacity="0.05" stroke-width="50"/>
</g>
</svg>
